<?xml version="1.0" standalone="no"?><!DOCTYPE svg PUBLIC "-//W3C//DTD SVG 1.1//EN" "http://www.w3.org/Graphics/SVG/1.1/DTD/svg11.dtd"><svg t="1516939814809" class="icon" style="" viewBox="0 0 1024 1024" version="1.1" xmlns="http://www.w3.org/2000/svg" p-id="3065" xmlns:xlink="http://www.w3.org/1999/xlink" width="20" height="20"><defs><style type="text/css"></style></defs><path d="M316.518 183.344c47.962 0 93.735 23.488 128.888 66.138 18.319 22.224 45.341 34.971 74.136 34.971 26.108 0 51.411-10.841 69.422-29.745 16.786-17.619 35.542-31.27 55.745-40.574 20.111-9.261 41.231-13.957 62.772-13.957 47.746 0 93.367 23.299 128.461 65.607 18.218 21.963 32.594 47.748 42.731 76.64 10.711 30.53 16.142 63.082 16.142 96.753 0 38.371-7.676 75.559-22.815 110.532-13.778 31.827-33.862 61.488-58.083 85.777-42.098 42.217-101.291 86.216-175.935 130.774-51.95 31.011-99.393 54.935-126.078 67.81-36.609-17.592-106.031-53.109-175.434-100.231-92.609-62.878-153.45-124.857-175.946-179.235-14.591-35.27-31.339-82.177-31.339-132.26 0-33.671 5.431-66.224 16.142-96.754 10.136-28.892 24.513-54.677 42.731-76.64 35.093-42.306 80.714-65.606 128.46-65.606m0-64c-138.807 0-251.333 135.657-251.333 303 0 57.363 16.638 109.439 36.2 156.726 65.177 157.549 333.493 289.889 397.064 319.432a32.03 32.03 0 0 0 13.498 2.985c4.623 0 9.243-1.002 13.532-3.008 49.845-23.313 226.385-110.128 333.756-217.802 57.887-58.05 99.579-142.899 99.579-241.5 0-167.342-112.526-303-251.334-303-63.099 0-120.73 28.073-164.854 74.385-6.311 6.624-14.707 9.891-23.085 9.891-9.193 0-18.366-3.931-24.751-11.678-45.522-55.232-108.582-89.431-178.272-89.431z" fill="#ffffff" p-id="3066"></path></svg>