<?xml version="1.0" standalone="no"?><!DOCTYPE svg PUBLIC "-//W3C//DTD SVG 1.1//EN" "http://www.w3.org/Graphics/SVG/1.1/DTD/svg11.dtd"><svg t="1516939066976" class="icon" style="" viewBox="0 0 1024 1024" version="1.1" xmlns="http://www.w3.org/2000/svg" p-id="1062" xmlns:xlink="http://www.w3.org/1999/xlink" width="20" height="20"><defs><style type="text/css"></style></defs><path d="M419.037 287.953h413.124c17.673 0 32-14.327 32-32s-14.327-32-32-32H419.037c-17.673 0-32 14.327-32 32s14.327 32 32 32z m-0.009 255.217h411.608c17.673 0 32-14.327 32-32s-14.327-32-32-32H419.028c-17.673 0-32 14.327-32 32s14.327 32 32 32z m413.133 192.632H419.037c-17.673 0-32 14.327-32 32s14.327 32 32 32h413.124c17.673 0 32-14.327 32-32s-14.327-32-32-32zM192.037 255.953a64 64 0 1 0 128 0 64 64 0 1 0-128 0zM192.037 510.787a64 64 0 1 0 128 0 64 64 0 1 0-128 0zM192.037 767.621a64 64 0 1 0 128 0 64 64 0 1 0-128 0z" p-id="1063" fill="#ffffff"></path></svg>