<?xml version="1.0" standalone="no"?><!DOCTYPE svg PUBLIC "-//W3C//DTD SVG 1.1//EN" "http://www.w3.org/Graphics/SVG/1.1/DTD/svg11.dtd"><svg t="1516940511419" class="icon" style="" viewBox="0 0 1024 1024" version="1.1" xmlns="http://www.w3.org/2000/svg" p-id="3928" xmlns:xlink="http://www.w3.org/1999/xlink" width="25" height="25"><defs><style type="text/css"></style></defs><path d="M811.216 162.048l-45.568 45.568C836.672 289.12 880 395.392 880 512s-43.328 222.88-114.336 304.368l45.568 45.584C893.776 768.784 944 646.288 944 512s-50.224-256.784-132.784-349.952zM496 240a47.52 47.52 0 0 0-30.256 11.024l-0.144-0.176-162.592 133.04H143.872v0.128A48 48 0 0 0 96 432v160a48 48 0 0 0 48 48h160.384l163.376 118.816 0.08-0.112c7.936 5.792 17.6 9.296 28.16 9.296a48 48 0 0 0 48-48V288a48 48 0 0 0-48-48z m190.432 46.816l-45.536 45.552C680.32 381.632 704 444 704 512s-23.68 130.368-63.088 179.632l45.536 45.568A350.512 350.512 0 0 0 768 512c0-85.68-30.672-164.16-81.568-225.184z" fill="#ffffff" p-id="3929"></path></svg>